<svg width="24" height="24" viewBox="0 0 24 24" fill="none" xmlns="http://www.w3.org/2000/svg">
<path d="M10 3.25C7.37665 3.25 5.25 5.37665 5.25 8C5.25 8.41421 5.58579 8.75 6 8.75C6.41421 8.75 6.75 8.41421 6.75 8C6.75 6.20507 8.20508 4.75 10 4.75H14.5361C13.7387 5.59965 13.25 6.74279 13.25 8V16C13.25 17.2572 13.7387 18.4003 14.5361 19.25H10C8.20507 19.25 6.75 17.7949 6.75 16C6.75 15.5858 6.41421 15.25 6 15.25C5.58579 15.25 5.25 15.5858 5.25 16C5.25 18.6234 7.37665 20.75 10 20.75H17.25C19.8734 20.75 22 18.6234 22 16V8C22 5.37665 19.8734 3.25 17.25 3.25H10ZM4.85352 9.46973C4.56063 9.17684 4.08586 9.17684 3.79297 9.46973L2.5 10.7627C1.81667 11.4461 1.81667 12.5539 2.5 13.2373L3.79297 14.5303C4.08586 14.8232 4.56063 14.8232 4.85352 14.5303C5.1464 14.2374 5.1464 13.7626 4.85352 13.4697L4.13379 12.75H10.25C10.6642 12.75 11 12.4142 11 12C11 11.5858 10.6642 11.25 10.25 11.25H4.13379L4.85352 10.5303C5.1464 10.2374 5.1464 9.76262 4.85352 9.46973Z" fill="#FDFDFE"/>
</svg>
